<svg xmlns="http://www.w3.org/2000/svg" viewBox="0 0 2400 1200" preserveAspectRatio="xMidYMid slice">
  <defs>
    <linearGradient id="sky" x1="0" y1="0" x2="0" y2="1">
      <stop offset="0%" stop-color="#A4C9F4"/>
      <stop offset="50%" stop-color="#7BA8E0"/>
      <stop offset="100%" stop-color="#4F7BBF"/>
    </linearGradient>
    <linearGradient id="far" x1="0" y1="0" x2="0" y2="1">
      <stop offset="0%" stop-color="#5C7DAE"/>
      <stop offset="100%" stop-color="#3F5A85"/>
    </linearGradient>
    <linearGradient id="mid" x1="0" y1="0" x2="0" y2="1">
      <stop offset="0%" stop-color="#3D567E"/>
      <stop offset="100%" stop-color="#26385A"/>
    </linearGradient>
    <linearGradient id="near" x1="0" y1="0" x2="0" y2="1">
      <stop offset="0%" stop-color="#1F324E"/>
      <stop offset="100%" stop-color="#0F1B30"/>
    </linearGradient>
  </defs>
  <rect width="2400" height="1200" fill="url(#sky)"/>
  <circle cx="1850" cy="320" r="150" fill="#FFFFFF" opacity="0.18"/>
  <polygon fill="url(#far)" points="0,820 220,600 450,720 700,520 950,650 1200,500 1450,650 1700,540 1950,680 2200,580 2400,700 2400,1200 0,1200"/>
  <polygon fill="url(#mid)" points="0,950 250,800 500,890 800,720 1100,850 1400,760 1700,870 2000,790 2200,910 2400,850 2400,1200 0,1200"/>
  <polygon fill="url(#near)" points="0,1100 300,950 600,1020 900,900 1200,990 1500,920 1800,1010 2100,940 2400,1010 2400,1200 0,1200"/>
</svg>
